<svg width="512" height="512" xmlns="http://www.w3.org/2000/svg">

 <g>
  <title>background</title>
  <rect fill="none" id="canvas_background" height="402" width="582" y="-1" x="-1"/>
 </g>
 <g>
  <title>Layer 1</title>
  <g id="svg_1" opacity="0.3">
   <line id="svg_2" y2="512" x2="48" y1="0" x1="48" stroke="#B35047" fill="none"/>
   <line id="svg_3" y2="512" x2="80" y1="0" x1="80" stroke="#B35047" fill="none"/>
   <line id="svg_4" y2="512" x2="112" y1="0" x1="112" stroke="#B35047" fill="none"/>
   <line id="svg_5" y2="512" x2="144" y1="0" x1="144" stroke="#B35047" fill="none"/>
   <line id="svg_6" y2="512" x2="176" y1="0" x1="176" stroke="#B35047" fill="none"/>
   <line id="svg_7" y2="512" x2="208" y1="0" x1="208" stroke="#B35047" fill="none"/>
   <line id="svg_8" y2="512" x2="240" y1="0" x1="240" stroke="#B35047" fill="none"/>
   <line id="svg_9" y2="512" x2="272" y1="0" x1="272" stroke="#B35047" fill="none"/>
   <line id="svg_10" y2="512" x2="304" y1="0" x1="304" stroke="#B35047" fill="none"/>
   <line id="svg_11" y2="512" x2="336" y1="0" x1="336" stroke="#B35047" fill="none"/>
   <line id="svg_12" y2="512" x2="368" y1="0" x1="368" stroke="#B35047" fill="none"/>
   <line id="svg_13" y2="512" x2="400" y1="0" x1="400" stroke="#B35047" fill="none"/>
   <line id="svg_14" y2="512" x2="432" y1="0" x1="432" stroke="#B35047" fill="none"/>
   <line id="svg_15" y2="512" x2="464" y1="0" x1="464" stroke="#B35047" fill="none"/>
   <line id="svg_16" y2="512" x2="496" y1="0" x1="496" stroke="#B35047" fill="none"/>
   <line id="svg_17" y2="48" x2="512" y1="48" x1="0" stroke="#B35047" fill="none"/>
   <line id="svg_18" y2="80" x2="512" y1="80" x1="0" stroke="#B35047" fill="none"/>
   <line id="svg_19" y2="112" x2="512" y1="112" x1="0" stroke="#B35047" fill="none"/>
   <line id="svg_20" y2="144" x2="512" y1="144" x1="0" stroke="#B35047" fill="none"/>
   <line id="svg_21" y2="176" x2="512" y1="176" x1="0" stroke="#B35047" fill="none"/>
   <line id="svg_22" y2="208" x2="512" y1="208" x1="0" stroke="#B35047" fill="none"/>
   <line id="svg_23" y2="240" x2="512" y1="240" x1="0" stroke="#B35047" fill="none"/>
   <line id="svg_24" y2="272" x2="512" y1="272" x1="0" stroke="#B35047" fill="none"/>
   <line id="svg_25" y2="304" x2="512" y1="304" x1="0" stroke="#B35047" fill="none"/>
   <line id="svg_26" y2="336" x2="512" y1="336" x1="0" stroke="#B35047" fill="none"/>
   <line id="svg_27" y2="368" x2="512" y1="368" x1="0" stroke="#B35047" fill="none"/>
   <line id="svg_28" y2="400" x2="512" y1="400" x1="0" stroke="#B35047" fill="none"/>
   <line id="svg_29" y2="432" x2="512" y1="432" x1="0" stroke="#B35047" fill="none"/>
   <line id="svg_30" y2="464" x2="512" y1="464" x1="0" stroke="#B35047" fill="none"/>
   <line id="svg_31" y2="496" x2="512" y1="496" x1="0" stroke="#B35047" fill="none"/>
   <line id="svg_32" y2="16" x2="512" y1="16" x1="0" stroke="#B35047" fill="none"/>
   <line id="svg_33" y2="512" x2="16" y1="0" x1="16" stroke="#B35047" fill="none"/>
  </g>
  <g id="svg_34">
   <line stroke="#B35047" id="svg_35" y2="512" x2="32" x1="32" fill="none"/>
   <line stroke="#B35047" id="svg_36" y2="512" x2="64" x1="64" fill="none"/>
   <line stroke="#B35047" id="svg_37" y2="512" x2="96" x1="96" fill="none"/>
   <line stroke="#B35047" id="svg_38" y2="512" x2="128" x1="128" fill="none"/>
   <line stroke="#B35047" id="svg_39" y2="512" x2="160" x1="160" fill="none"/>
   <line stroke="#B35047" id="svg_40" y2="512" x2="192" x1="192" fill="none"/>
   <line stroke="#B35047" id="svg_41" y2="512" x2="224" x1="224" fill="none"/>
   <line stroke="#B35047" id="svg_42" y2="512" x2="256" x1="256" fill="none"/>
   <line stroke="#B35047" id="svg_43" y2="512" x2="288" x1="288" fill="none"/>
   <line stroke="#B35047" id="svg_44" y2="512" x2="320" x1="320" fill="none"/>
   <line stroke="#B35047" id="svg_45" y2="512" x2="352" x1="352" fill="none"/>
   <line stroke="#B35047" id="svg_46" y2="512" x2="384" x1="384" fill="none"/>
   <line stroke="#B35047" id="svg_47" y2="512" x2="416" x1="416" fill="none"/>
   <line stroke="#B35047" id="svg_48" y2="512" x2="448" x1="448" fill="none"/>
   <line stroke="#B35047" id="svg_49" y2="512" x2="480" x1="480" fill="none"/>
   <line stroke="#B35047" id="svg_50" y2="32" x2="512" y1="32" fill="none"/>
   <line stroke="#B35047" id="svg_51" y2="64" x2="512" y1="64" fill="none"/>
   <line stroke="#B35047" id="svg_52" y2="96" x2="512" y1="96" fill="none"/>
   <line stroke="#B35047" id="svg_53" y2="128" x2="512" y1="128" fill="none"/>
   <line stroke="#B35047" id="svg_54" y2="160" x2="512" y1="160" fill="none"/>
   <line stroke="#B35047" id="svg_55" y2="192" x2="512" y1="192" fill="none"/>
   <line stroke="#B35047" id="svg_56" y2="224" x2="512" y1="224" fill="none"/>
   <line stroke="#B35047" id="svg_57" y2="256" x2="512" y1="256" fill="none"/>
   <line stroke="#B35047" id="svg_58" y2="288" x2="512" y1="288" fill="none"/>
   <line stroke="#B35047" id="svg_59" y2="320" x2="512" y1="320" fill="none"/>
   <line stroke="#B35047" id="svg_60" y2="352" x2="512" y1="352" fill="none"/>
   <line stroke="#B35047" id="svg_61" y2="384" x2="512" y1="384" fill="none"/>
   <line stroke="#B35047" id="svg_62" y2="416" x2="512" y1="416" fill="none"/>
   <line stroke="#B35047" id="svg_63" y2="448" x2="512" y1="448" fill="none"/>
   <line stroke="#B35047" id="svg_64" y2="480" x2="512" y1="480" fill="none"/>
   <rect stroke="#B35047" id="svg_65" height="512" width="512" fill="none"/>
  </g>
  <path id="svg_66" d="m512,411l0,-320c0,-17.671997 -14.312012,-32 -32,-32l-448,0c-17.688,0 -32,14.328003 -32,32l0,320c0,17.671997 14.312,32 32,32l448,0c17.687988,0 32,-14.328003 32,-32zm-448,-32l0,-256l384,0l0,256l-384,0z" clip-rule="evenodd" fill-rule="evenodd"/>
 </g>
</svg>